<svg width="139" height="27" viewBox="0 0 139 27" fill="none" xmlns="http://www.w3.org/2000/svg">
<g clip-path="url(#clip0_1_677)">
<path d="M15.2237 5.48605C14.6795 4.86455 14.0999 4.39841 13.4848 4.08765C12.8697 3.77689 12.2073 3.5976 11.4976 3.5498V0C14.1472 0.119522 16.371 1.06375 18.169 2.83267L15.2237 5.48605ZM11.4976 23.4502C12.2073 23.3785 12.8697 23.1872 13.4848 22.8765C14.1236 22.5657 14.7032 22.1116 15.2237 21.514L18.169 24.1314C17.2701 25.0159 16.2645 25.6973 15.1527 26.1754C14.0408 26.6534 12.8224 26.9283 11.4976 27V23.4502ZM0 13.4821C0 11.3546 0.248404 9.47808 0.745213 7.85259C1.26568 6.22708 1.97541 4.85259 2.87439 3.72908C3.77338 2.60558 4.82615 1.73306 6.03268 1.11155C7.26287 0.490039 8.59953 0.119522 10.0426 0V3.58566C9.26194 3.70518 8.52856 3.98007 7.84248 4.41037C7.15641 4.81674 6.55314 5.41434 6.03268 6.20318C5.51221 6.99204 5.09821 7.99601 4.79065 9.21515C4.50676 10.4104 4.35299 11.8327 4.32934 13.4821C4.35299 15.1554 4.50676 16.5896 4.79065 17.7849C5.09821 18.9801 5.51221 19.9841 6.03268 20.7969C6.55314 21.6096 7.15641 22.2311 7.84248 22.6614C8.55221 23.0916 9.28559 23.3545 10.0426 23.4502V26.9642C8.59953 26.8685 7.26287 26.51 6.03268 25.8884C4.82615 25.267 3.77338 24.3944 2.87439 23.2709C1.97541 22.1475 1.26568 20.7729 0.745213 19.1474C0.248404 17.498 0 15.6095 0 13.4821Z" fill="white"/>
<path d="M45.7065 26.8207H41.3062L34.5282 7.02778L27.6794 26.8207H23.2437L32.399 0.430176H36.622L45.7065 26.8207ZM36.918 23.9163L37.9471 26.8207H31.1692L32.1628 23.9163H36.918Z" fill="#0060B8"/>
<path d="M51.2068 0.394531H55.5361L62.5624 16.7093V23.3428H61.4268L55.5361 8.64154V26.8209H51.2068V0.394531ZM71.0437 0.394531H75.3729V26.8209H71.0437V8.64154L65.1884 23.3428H64.0173V16.781L71.0437 0.394531Z" fill="white"/>
<path d="M86.3029 26.8209H81.9736V0.394531H86.3029V26.8209Z" fill="white"/>
<path d="M92.3 13.4821C92.3 11.3546 92.5485 9.47808 93.0453 7.85259C93.5657 6.20318 94.2754 4.81674 95.1745 3.69323C96.0971 2.54581 97.1735 1.67331 98.4038 1.0757C99.6577 0.454183 101.018 0.0956175 102.485 0V3.58566C101.68 3.68127 100.923 3.93227 100.214 4.33864C99.5038 4.74501 98.8888 5.34263 98.3682 6.13147C97.8478 6.92031 97.4338 7.9243 97.1263 9.14342C96.8186 10.3626 96.6531 11.8088 96.6295 13.4821C96.6531 15.1793 96.8186 16.6375 97.1263 17.8566C97.4338 19.0518 97.8478 20.0558 98.3682 20.8686C98.9124 21.6813 99.5393 22.3028 100.249 22.7331C100.959 23.1395 101.704 23.3785 102.485 23.4502V27C101.042 26.9044 99.6931 26.5578 98.4392 25.9601C97.1853 25.3387 96.0971 24.4661 95.1745 23.3426C94.2754 22.1952 93.5657 20.7969 93.0453 19.1474C92.5485 17.498 92.3 15.6095 92.3 13.4821ZM103.904 0C105.347 0.0717132 106.684 0.418326 107.914 1.03984C109.168 1.66135 110.244 2.54581 111.143 3.69323C112.066 4.81674 112.788 6.20318 113.308 7.85259C113.829 9.47808 114.089 11.3546 114.089 13.4821C114.089 15.6095 113.829 17.498 113.308 19.1474C112.788 20.7969 112.066 22.1952 111.143 23.3426C110.244 24.4661 109.18 25.3387 107.95 25.9601C106.719 26.5578 105.371 26.9044 103.904 27V23.4502C104.708 23.3545 105.466 23.1036 106.175 22.6972C106.885 22.2669 107.5 21.6574 108.021 20.8686C108.541 20.0558 108.955 19.0518 109.263 17.8566C109.57 16.6375 109.736 15.1793 109.759 13.4821C109.736 11.7849 109.57 10.3387 109.263 9.14342C108.955 7.9243 108.529 6.92031 107.985 6.13147C107.465 5.31873 106.849 4.70917 106.14 4.30279C105.43 3.87252 104.685 3.62151 103.904 3.5498V0Z" fill="white"/>
<path d="M134.671 0.394531H139V26.8209H134.671L125.87 11.1874V2.94035L134.671 18.6097V0.394531ZM120.086 26.8209V0.394531H124.415V26.8209H120.086Z" fill="white"/>
</g>
<defs>
<clipPath id="clip0_1_677">
<rect width="139" height="27" fill="white"/>
</clipPath>
</defs>
</svg>
