<svg width="32" height="32" viewBox="0 0 32 32" fill="none" xmlns="http://www.w3.org/2000/svg">
<path fill-rule="evenodd" clip-rule="evenodd" d="M16 1.66699C15.1933 1.66699 14.4507 1.86699 13.6387 2.20299C12.8533 2.52833 11.9413 3.00699 10.8067 3.60299L8.04934 5.04966C6.656 5.78032 5.54267 6.36566 4.68 6.94033C3.78934 7.53632 3.10134 8.16299 2.60134 9.01232C2.10267 9.85899 1.87867 10.7763 1.77067 11.8683C1.66667 12.9283 1.66667 14.231 1.66667 15.871V16.1297C1.66667 17.7697 1.66667 19.0723 1.77067 20.1323C1.87867 21.2257 2.10401 22.1417 2.60134 22.9883C3.10134 23.8377 3.788 24.4643 4.68134 25.0603C5.54134 25.635 6.656 26.2203 8.04934 26.951L10.8067 28.3977C11.9413 28.9937 12.8533 29.4723 13.6387 29.7977C14.452 30.1337 15.1933 30.3337 16 30.3337C16.8067 30.3337 17.5493 30.1337 18.3613 29.7977C19.1467 29.4723 20.0587 28.9937 21.1933 28.3977L23.9507 26.9523C25.344 26.2203 26.4573 25.635 27.3187 25.0603C28.212 24.4643 28.8987 23.8377 29.3987 22.9883C29.8973 22.1417 30.1213 21.2243 30.2293 20.1323C30.3333 19.0723 30.3333 17.7697 30.3333 16.131V15.8697C30.3333 14.231 30.3333 12.9283 30.2293 11.8683C30.1213 10.775 29.896 9.85899 29.3987 9.01232C28.8987 8.16299 28.212 7.53632 27.3187 6.94033C26.4587 6.36566 25.344 5.78032 23.9507 5.04966L21.1933 3.60299C20.0587 3.00699 19.1467 2.52833 18.3613 2.20299C17.548 1.86699 16.8067 1.66699 16 1.66699ZM11.6933 5.39499C12.88 4.77233 13.712 4.33766 14.4027 4.05233C15.0747 3.77366 15.548 3.66699 16 3.66699C16.4533 3.66699 16.9253 3.77366 17.5973 4.05233C18.288 4.33766 19.1187 4.77233 20.3053 5.39499L22.972 6.79499C24.4253 7.55633 25.4453 8.09366 26.2093 8.60299C26.5853 8.85499 26.88 9.08833 27.12 9.32299L22.6787 11.543L11.3453 5.57766L11.6933 5.39499ZM9.26 6.67233L9.028 6.79499C7.57467 7.55633 6.55467 8.09366 5.792 8.60299C5.46658 8.81396 5.16169 9.05501 4.88134 9.32299L16 14.883L20.476 12.643L9.53467 6.88566C9.43134 6.83116 9.33838 6.75895 9.26 6.67233ZM3.91734 11.0763C3.85067 11.3617 3.79867 11.6857 3.76134 12.063C3.668 13.015 3.66667 14.219 3.66667 15.9217V16.0777C3.66667 17.7817 3.66667 18.9857 3.76134 19.9363C3.85334 20.8657 4.028 21.467 4.32534 21.9737C4.62134 22.4763 5.04934 22.9017 5.792 23.3977C6.55467 23.907 7.57467 24.4443 9.028 25.2057L11.6947 26.6057C12.8813 27.2283 13.712 27.663 14.4027 27.9483C14.6213 28.039 14.8173 28.111 15 28.1683V16.6177L3.91734 11.0763ZM17 28.167C17.1827 28.111 17.3787 28.039 17.5973 27.9483C18.288 27.663 19.1187 27.2283 20.3053 26.6057L22.972 25.2057C24.4253 24.443 25.4453 23.907 26.2093 23.3977C26.9507 22.9017 27.3787 22.4763 27.676 21.9737C27.9733 21.467 28.1467 20.867 28.2387 19.9363C28.332 18.9857 28.3333 17.7817 28.3333 16.079V15.923C28.3333 14.219 28.3333 13.015 28.2387 12.0643C28.2086 11.7323 28.1565 11.4027 28.0827 11.0777L23.6667 13.2843V17.3337C23.6667 17.5989 23.5613 17.8532 23.3738 18.0408C23.1862 18.2283 22.9319 18.3337 22.6667 18.3337C22.4015 18.3337 22.1471 18.2283 21.9596 18.0408C21.772 17.8532 21.6667 17.5989 21.6667 17.3337V14.2857L17 16.619V28.167Z" fill="#0060B8"/>
</svg>
