<svg width="268" height="52" viewBox="0 0 268 52" fill="none" xmlns="http://www.w3.org/2000/svg">
<g clip-path="url(#clip0_1_425)">
<path d="M29.3521 10.5657C28.303 9.36875 27.1854 8.47101 25.9995 7.87251C24.8136 7.27401 23.5364 6.92872 22.168 6.83665V0C27.2766 0.23019 31.5642 2.04869 35.0309 5.4555L29.3521 10.5657ZM22.168 45.1633C23.5364 45.0252 24.8136 44.6568 25.9995 44.0584C27.231 43.46 28.3486 42.5854 29.3521 41.4343L35.0309 46.4754C33.2977 48.1787 31.3589 49.4911 29.2152 50.4118C27.0714 51.3325 24.7223 51.8619 22.168 52V45.1633ZM0 25.9655C0 21.8681 0.478938 18.2541 1.43681 15.1235C2.4403 11.9929 3.80869 9.34572 5.54199 7.18193C7.27529 5.01815 9.30509 3.33775 11.6313 2.14077C14.0032 0.943779 16.5804 0.23019 19.3628 0V6.90572C17.8576 7.1359 16.4436 7.66533 15.1207 8.49404C13.798 9.27668 12.6348 10.4276 11.6313 11.9469C10.6279 13.4661 9.82964 15.3997 9.23666 17.7477C8.6893 20.0496 8.39281 22.7888 8.34721 25.9655C8.39281 29.1881 8.6893 31.9503 9.23666 34.2524C9.82964 36.5542 10.6279 38.4879 11.6313 40.0532C12.6348 41.6185 13.798 42.8154 15.1207 43.6442C16.4892 44.4726 17.9032 44.9791 19.3628 45.1633V51.931C16.5804 51.7468 14.0032 51.0564 11.6313 49.8592C9.30509 48.6623 7.27529 46.9819 5.54199 44.8181C3.80869 42.6544 2.4403 40.0071 1.43681 36.8765C0.478938 33.6998 0 30.0628 0 25.9655Z" fill="#333333"/>
<path d="M88.1252 51.6548H79.6411L66.5728 13.5352L53.3678 51.6548H44.8154L62.4675 0.82869H70.6097L88.1252 51.6548ZM71.1804 46.0611L73.1645 51.6548H60.0964L62.0121 46.0611H71.1804Z" fill="#0060B8"/>
<path d="M98.7295 0.759628H107.077L120.624 32.1807V44.9562H118.434L107.077 16.6428V51.6548H98.7295V0.759628ZM136.976 0.759628H145.323V51.6548H136.976V16.6428L125.687 44.9562H123.429V32.3187L136.976 0.759628Z" fill="#333333"/>
<path d="M166.397 51.6548H158.05V0.759628H166.397V51.6548Z" fill="#333333"/>
<path d="M177.96 25.9655C177.96 21.8681 178.439 18.2541 179.397 15.1235C180.4 11.9469 181.769 9.27668 183.502 7.1129C185.281 4.90304 187.356 3.22268 189.728 2.07171C192.146 0.874722 194.768 0.184152 197.596 0V6.90572C196.046 7.08986 194.586 7.57326 193.218 8.3559C191.849 9.13854 190.663 10.2895 189.66 11.8088C188.656 13.328 187.858 15.2616 187.265 17.6096C186.672 19.9575 186.353 22.7428 186.307 25.9655C186.353 29.2342 186.672 32.0426 187.265 34.3905C187.858 36.6923 188.656 38.626 189.66 40.1913C190.709 41.7566 191.918 42.9535 193.286 43.7822C194.654 44.5649 196.091 45.0252 197.596 45.1633V52C194.814 51.8158 192.214 51.1483 189.797 49.9973C187.379 48.8004 185.281 47.1199 183.502 44.9562C181.769 42.7463 180.4 40.0532 179.397 36.8765C178.439 33.6998 177.96 30.0628 177.96 25.9655ZM200.333 0C203.116 0.138114 205.693 0.805665 208.065 2.00266C210.482 3.19965 212.558 4.90304 214.291 7.1129C216.07 9.27668 217.461 11.9469 218.464 15.1235C219.468 18.2541 219.97 21.8681 219.97 25.9655C219.97 30.0628 219.468 33.6998 218.464 36.8765C217.461 40.0532 216.07 42.7463 214.291 44.9562C212.558 47.1199 210.505 48.8004 208.133 49.9973C205.761 51.1483 203.161 51.8158 200.333 52V45.1633C201.884 44.9791 203.344 44.4958 204.712 43.7132C206.08 42.8844 207.267 41.7105 208.27 40.1913C209.273 38.626 210.072 36.6923 210.665 34.3905C211.258 32.0426 211.577 29.2342 211.623 25.9655C211.577 22.6968 211.258 19.9115 210.665 17.6096C210.072 15.2616 209.251 13.328 208.202 11.8088C207.198 10.2435 206.012 9.0695 204.644 8.28686C203.275 7.45818 201.839 6.97476 200.333 6.83665V0Z" fill="#333333"/>
<path d="M259.653 0.759628H268V51.6548H259.653L242.685 21.5458V5.66268L259.653 35.8406V0.759628ZM231.532 51.6548V0.759628H239.879V51.6548H231.532Z" fill="#333333"/>
</g>
<defs>
<clipPath id="clip0_1_425">
<rect width="268" height="52" fill="white"/>
</clipPath>
</defs>
</svg>
