<svg width="13" height="14" viewBox="0 0 13 14" fill="none" xmlns="http://www.w3.org/2000/svg">
<path fill-rule="evenodd" clip-rule="evenodd" d="M1.68046 3L3.20786 12.1644C3.28822 12.6466 3.70541 13 4.19425 13H8.80575C9.29459 13 9.71178 12.6466 9.79214 12.1644L11.3195 3H1.68046ZM2.22147 12.3288C2.3822 13.2932 3.21658 14 4.19425 14H8.80575C9.78342 14 10.6178 13.2932 10.7785 12.3288L12.5 2H0.5L2.22147 12.3288Z" fill="#EB5757"/>
<path d="M12.5 2C12.5 3.10457 9.81371 4 6.5 4C3.18629 4 0.5 3.10457 0.5 2C0.5 0.89543 3.18629 0 6.5 0C9.81371 0 12.5 0.89543 12.5 2Z" fill="#EB5757"/>
<path fill-rule="evenodd" clip-rule="evenodd" d="M11.4006 2C11.2206 1.86078 10.9031 1.69338 10.4264 1.53447C9.46755 1.21485 8.07928 1 6.5 1C4.92072 1 3.53245 1.21485 2.57359 1.53447C2.09686 1.69338 1.77937 1.86078 1.59935 2C1.77937 2.13922 2.09686 2.30662 2.57359 2.46553C3.53245 2.78515 4.92072 3 6.5 3C8.07928 3 9.46755 2.78515 10.4264 2.46553C10.9031 2.30662 11.2206 2.13922 11.4006 2ZM6.5 4C9.81371 4 12.5 3.10457 12.5 2C12.5 0.89543 9.81371 0 6.5 0C3.18629 0 0.5 0.89543 0.5 2C0.5 3.10457 3.18629 4 6.5 4Z" fill="#EB5757"/>
</svg>
