<svg width="38" height="34" viewBox="0 0 38 34" fill="none" xmlns="http://www.w3.org/2000/svg">
<path fill-rule="evenodd" clip-rule="evenodd" d="M14.4803 3L16.0077 12.1644C16.088 12.6466 16.5052 13 16.9941 13H21.6056C22.0944 13 22.5116 12.6466 22.5919 12.1644L24.1193 3H14.4803ZM15.0213 12.3288C15.182 13.2932 16.0164 14 16.9941 14H21.6056C22.5832 14 23.4176 13.2932 23.5783 12.3288L25.2998 2H13.2998L15.0213 12.3288Z" fill="#EB5757"/>
<path d="M25.2998 2C25.2998 3.10457 22.6135 4 19.2998 4C15.9861 4 13.2998 3.10457 13.2998 2C13.2998 0.89543 15.9861 0 19.2998 0C22.6135 0 25.2998 0.89543 25.2998 2Z" fill="#EB5757"/>
<path fill-rule="evenodd" clip-rule="evenodd" d="M24.2005 2C24.0204 1.86078 23.7029 1.69338 23.2262 1.53447C22.2674 1.21485 20.8791 1 19.2998 1C17.7205 1 16.3323 1.21485 15.3734 1.53447C14.8967 1.69338 14.5792 1.86078 14.3992 2C14.5792 2.13922 14.8967 2.30662 15.3734 2.46553C16.3323 2.78515 17.7205 3 19.2998 3C20.8791 3 22.2674 2.78515 23.2262 2.46553C23.7029 2.30662 24.0204 2.13922 24.2005 2ZM19.2998 4C22.6135 4 25.2998 3.10457 25.2998 2C25.2998 0.89543 22.6135 0 19.2998 0C15.9861 0 13.2998 0.89543 13.2998 2C13.2998 3.10457 15.9861 4 19.2998 4Z" fill="#EB5757"/>
<path d="M4.5498 31H1.85662V22.2727H4.66912C5.51571 22.2727 6.24015 22.4474 6.84242 22.7969C7.44469 23.1435 7.90634 23.642 8.22736 24.2926C8.54838 24.9403 8.7089 25.7159 8.7089 26.6193C8.7089 27.5284 8.54696 28.3111 8.2231 28.9673C7.89924 29.6207 7.42765 30.1236 6.80833 30.4759C6.18901 30.8253 5.43617 31 4.5498 31ZM2.91344 30.0625H4.48162C5.20321 30.0625 5.80123 29.9233 6.27566 29.6449C6.75009 29.3665 7.10378 28.9702 7.33674 28.456C7.56969 27.9418 7.68617 27.3295 7.68617 26.6193C7.68617 25.9148 7.57111 25.3082 7.341 24.7997C7.11088 24.2884 6.76713 23.8963 6.30975 23.6236C5.85236 23.348 5.28276 23.2102 4.60094 23.2102H2.91344V30.0625ZM13.0896 31.1364C12.4589 31.1364 11.9149 30.9972 11.4575 30.7188C11.0029 30.4375 10.6521 30.0455 10.4049 29.5426C10.1606 29.0369 10.0384 28.4489 10.0384 27.7784C10.0384 27.108 10.1606 26.517 10.4049 26.0057C10.6521 25.4915 10.9958 25.0909 11.4362 24.804C11.8794 24.5142 12.3964 24.3693 12.9873 24.3693C13.3282 24.3693 13.6649 24.4261 13.9972 24.5398C14.3296 24.6534 14.6322 24.8381 14.9049 25.0938C15.1776 25.3466 15.395 25.6818 15.5569 26.0994C15.7188 26.517 15.7998 27.0312 15.7998 27.642V28.0682H10.7544V27.1989H14.7771C14.7771 26.8295 14.7032 26.5 14.5555 26.2102C14.4106 25.9205 14.2032 25.6918 13.9333 25.5241C13.6663 25.3565 13.3509 25.2727 12.9873 25.2727C12.5867 25.2727 12.2401 25.3722 11.9475 25.571C11.6578 25.767 11.4347 26.0227 11.2785 26.3381C11.1222 26.6534 11.0441 26.9915 11.0441 27.3523V27.9318C11.0441 28.4261 11.1294 28.8452 11.2998 29.1889C11.4731 29.5298 11.7132 29.7898 12.02 29.9688C12.3268 30.1449 12.6833 30.233 13.0896 30.233C13.3538 30.233 13.5924 30.196 13.8055 30.1222C14.0214 30.0455 14.2075 29.9318 14.3637 29.7812C14.52 29.6278 14.6407 29.4375 14.7259 29.2102L15.6975 29.483C15.5953 29.8125 15.4234 30.1023 15.1819 30.3523C14.9404 30.5994 14.6421 30.7926 14.287 30.9318C13.9319 31.0682 13.5328 31.1364 13.0896 31.1364ZM18.3353 22.2727V31H17.3296V22.2727H18.3353ZM22.9216 31.1364C22.2909 31.1364 21.7469 30.9972 21.2895 30.7188C20.835 30.4375 20.4841 30.0455 20.2369 29.5426C19.9926 29.0369 19.8705 28.4489 19.8705 27.7784C19.8705 27.108 19.9926 26.517 20.2369 26.0057C20.4841 25.4915 20.8279 25.0909 21.2682 24.804C21.7114 24.5142 22.2284 24.3693 22.8193 24.3693C23.1602 24.3693 23.4969 24.4261 23.8293 24.5398C24.1617 24.6534 24.4642 24.8381 24.7369 25.0938C25.0097 25.3466 25.227 25.6818 25.3889 26.0994C25.5509 26.517 25.6318 27.0312 25.6318 27.642V28.0682H20.5864V27.1989H24.6091C24.6091 26.8295 24.5352 26.5 24.3875 26.2102C24.2426 25.9205 24.0352 25.6918 23.7654 25.5241C23.4983 25.3565 23.183 25.2727 22.8193 25.2727C22.4188 25.2727 22.0722 25.3722 21.7796 25.571C21.4898 25.767 21.2668 26.0227 21.1105 26.3381C20.9543 26.6534 20.8762 26.9915 20.8762 27.3523V27.9318C20.8762 28.4261 20.9614 28.8452 21.1318 29.1889C21.3051 29.5298 21.5452 29.7898 21.852 29.9688C22.1588 30.1449 22.5154 30.233 22.9216 30.233C23.1858 30.233 23.4244 30.196 23.6375 30.1222C23.8534 30.0455 24.0395 29.9318 24.1958 29.7812C24.352 29.6278 24.4727 29.4375 24.558 29.2102L25.5296 29.483C25.4273 29.8125 25.2554 30.1023 25.0139 30.3523C24.7725 30.5994 24.4742 30.7926 24.1191 30.9318C23.7639 31.0682 23.3648 31.1364 22.9216 31.1364ZM30.0083 24.4545V25.3068H26.6162V24.4545H30.0083ZM27.6048 22.8864H28.6105V29.125C28.6105 29.4091 28.6517 29.6222 28.7341 29.7642C28.8193 29.9034 28.9273 29.9972 29.058 30.0455C29.1915 30.0909 29.3321 30.1136 29.4798 30.1136C29.5906 30.1136 29.6816 30.108 29.7526 30.0966C29.8236 30.0824 29.8804 30.071 29.923 30.0625L30.1276 30.9659C30.0594 30.9915 29.9642 31.017 29.8421 31.0426C29.7199 31.071 29.5651 31.0852 29.3776 31.0852C29.0935 31.0852 28.8151 31.0241 28.5423 30.902C28.2725 30.7798 28.048 30.5938 27.8691 30.3438C27.6929 30.0938 27.6048 29.7784 27.6048 29.3977V22.8864ZM34.195 31.1364C33.5644 31.1364 33.0203 30.9972 32.5629 30.7188C32.1084 30.4375 31.7575 30.0455 31.5104 29.5426C31.2661 29.0369 31.1439 28.4489 31.1439 27.7784C31.1439 27.108 31.2661 26.517 31.5104 26.0057C31.7575 25.4915 32.1013 25.0909 32.5416 24.804C32.9848 24.5142 33.5019 24.3693 34.0928 24.3693C34.4337 24.3693 34.7703 24.4261 35.1027 24.5398C35.4351 24.6534 35.7377 24.8381 36.0104 25.0938C36.2831 25.3466 36.5004 25.6818 36.6624 26.0994C36.8243 26.517 36.9053 27.0312 36.9053 27.642V28.0682H31.8598V27.1989H35.8825C35.8825 26.8295 35.8087 26.5 35.661 26.2102C35.5161 25.9205 35.3087 25.6918 35.0388 25.5241C34.7718 25.3565 34.4564 25.2727 34.0928 25.2727C33.6922 25.2727 33.3456 25.3722 33.053 25.571C32.7632 25.767 32.5402 26.0227 32.384 26.3381C32.2277 26.6534 32.1496 26.9915 32.1496 27.3523V27.9318C32.1496 28.4261 32.2348 28.8452 32.4053 29.1889C32.5786 29.5298 32.8186 29.7898 33.1254 29.9688C33.4323 30.1449 33.7888 30.233 34.195 30.233C34.4593 30.233 34.6979 30.196 34.911 30.1222C35.1269 30.0455 35.3129 29.9318 35.4692 29.7812C35.6254 29.6278 35.7462 29.4375 35.8314 29.2102L36.803 29.483C36.7007 29.8125 36.5289 30.1023 36.2874 30.3523C36.0459 30.5994 35.7476 30.7926 35.3925 30.9318C35.0374 31.0682 34.6382 31.1364 34.195 31.1364Z" fill="#EB5757"/>
</svg>
