<svg width="15" height="16" viewBox="0 0 15 16" fill="none" xmlns="http://www.w3.org/2000/svg">
<path d="M10.5461 8.20706C11.0387 7.77236 11.4337 7.23472 11.7045 6.63061C11.9752 6.0265 12.1154 5.37008 12.1154 4.70588C12.1154 3.4578 11.6291 2.26085 10.7635 1.37832C9.89799 0.495797 8.72405 0 7.49997 0C6.2759 0 5.10195 0.495797 4.2364 1.37832C3.37085 2.26085 2.88459 3.4578 2.88459 4.70588C2.88458 5.37008 3.02471 6.0265 3.29547 6.63061C3.56623 7.23472 3.96128 7.77236 4.45382 8.20706C3.16164 8.80366 2.06532 9.76709 1.29595 10.9822C0.526583 12.1972 0.116715 13.6125 0.115356 15.0588C0.115356 15.3084 0.212609 15.5478 0.385719 15.7243C0.55883 15.9008 0.793618 16 1.03843 16C1.28325 16 1.51804 15.9008 1.69115 15.7243C1.86426 15.5478 1.96151 15.3084 1.96151 15.0588C1.96151 13.5611 2.54502 12.1248 3.58369 11.0658C4.62235 10.0067 6.03108 9.41177 7.49997 9.41177C8.96886 9.41177 10.3776 10.0067 11.4163 11.0658C12.4549 12.1248 13.0384 13.5611 13.0384 15.0588C13.0384 15.3084 13.1357 15.5478 13.3088 15.7243C13.4819 15.9008 13.7167 16 13.9615 16C14.2063 16 14.4411 15.9008 14.6142 15.7243C14.7873 15.5478 14.8846 15.3084 14.8846 15.0588C14.8832 13.6125 14.4734 12.1972 13.704 10.9822C12.9346 9.76709 11.8383 8.80366 10.5461 8.20706ZM7.49997 7.52941C6.95227 7.52941 6.41687 7.36381 5.96147 7.05356C5.50607 6.74331 5.15113 6.30233 4.94154 5.7864C4.73194 5.27047 4.6771 4.70275 4.78395 4.15504C4.8908 3.60733 5.15455 3.10422 5.54183 2.70935C5.92911 2.31447 6.42254 2.04555 6.95972 1.93661C7.4969 1.82766 8.0537 1.88358 8.55971 2.09728C9.06572 2.31099 9.49821 2.67289 9.8025 3.13721C10.1068 3.60154 10.2692 4.14744 10.2692 4.70588C10.2692 5.45473 9.97745 6.17291 9.45811 6.70242C8.93878 7.23193 8.23442 7.52941 7.49997 7.52941Z" fill="#0060B8"/>
</svg>
