<svg width="17" height="16" viewBox="0 0 17 16" fill="none" xmlns="http://www.w3.org/2000/svg">
<path fill-rule="evenodd" clip-rule="evenodd" d="M3.68046 4L5.20786 13.1644C5.28822 13.6466 5.70541 14 6.19425 14H10.8057C11.2946 14 11.7118 13.6466 11.7921 13.1644L13.3195 4H3.68046ZM4.22147 13.3288C4.3822 14.2932 5.21658 15 6.19425 15H10.8057C11.7834 15 12.6178 14.2932 12.7785 13.3288L14.5 3H2.5L4.22147 13.3288Z" fill="#EB5757"/>
<path d="M14.5 3C14.5 4.10457 11.8137 5 8.5 5C5.18629 5 2.5 4.10457 2.5 3C2.5 1.89543 5.18629 1 8.5 1C11.8137 1 14.5 1.89543 14.5 3Z" fill="#EB5757"/>
<path fill-rule="evenodd" clip-rule="evenodd" d="M13.4006 3C13.2206 2.86078 12.9031 2.69338 12.4264 2.53447C11.4675 2.21485 10.0793 2 8.5 2C6.92072 2 5.53245 2.21485 4.57359 2.53447C4.09686 2.69338 3.77937 2.86078 3.59935 3C3.77937 3.13922 4.09686 3.30662 4.57359 3.46553C5.53245 3.78515 6.92072 4 8.5 4C10.0793 4 11.4675 3.78515 12.4264 3.46553C12.9031 3.30662 13.2206 3.13922 13.4006 3ZM8.5 5C11.8137 5 14.5 4.10457 14.5 3C14.5 1.89543 11.8137 1 8.5 1C5.18629 1 2.5 1.89543 2.5 3C2.5 4.10457 5.18629 5 8.5 5Z" fill="#EB5757"/>
</svg>
