<svg width="23" height="35" viewBox="0 0 23 35" fill="none" xmlns="http://www.w3.org/2000/svg">
<path d="M18.9774 1.43934C19.1726 1.6346 19.1726 1.95118 18.9774 2.14645L17.9345 3.18933L15.9345 1.18933L16.9774 0.146447C17.1726 -0.0488156 17.4892 -0.0488154 17.6845 0.146447L18.9774 1.43934Z" fill="#27AE60"/>
<path d="M17.2274 3.89644L15.2274 1.89644L8.41438 8.70943C8.35949 8.76432 8.31814 8.83123 8.29359 8.90487L7.48903 11.3186C7.42388 11.514 7.60982 11.6999 7.80526 11.6348L10.2189 10.8302C10.2926 10.8057 10.3595 10.7643 10.4144 10.7094L17.2274 3.89644Z" fill="#27AE60"/>
<path fill-rule="evenodd" clip-rule="evenodd" d="M4.47577 13C4.47577 13.8284 5.14734 14.5 5.97577 14.5H16.9758C17.8042 14.5 18.4758 13.8284 18.4758 13V7C18.4758 6.72386 18.2519 6.5 17.9758 6.5C17.6996 6.5 17.4758 6.72386 17.4758 7V13C17.4758 13.2761 17.2519 13.5 16.9758 13.5H5.97577C5.69963 13.5 5.47577 13.2761 5.47577 13V2C5.47577 1.72386 5.69963 1.5 5.97577 1.5H12.4758C12.7519 1.5 12.9758 1.27614 12.9758 1C12.9758 0.723858 12.7519 0.5 12.4758 0.5H5.97577C5.14734 0.5 4.47577 1.17157 4.47577 2V13Z" fill="#27AE60"/>
<path d="M1.85662 31.5V22.7727H7.12367V23.7102H2.91344V26.6591H6.85094V27.5966H2.91344V30.5625H7.19185V31.5H1.85662ZM11.3637 31.6364C10.8183 31.6364 10.3367 31.4986 9.91912 31.223C9.50151 30.9446 9.1748 30.5526 8.93901 30.0469C8.70321 29.5384 8.58532 28.9375 8.58532 28.2443C8.58532 27.5568 8.70321 26.9602 8.93901 26.4545C9.1748 25.9489 9.50293 25.5582 9.92338 25.2827C10.3438 25.0071 10.8296 24.8693 11.3808 24.8693C11.8069 24.8693 12.1436 24.9403 12.3907 25.0824C12.6407 25.2216 12.8311 25.3807 12.9617 25.5597C13.0953 25.7358 13.199 25.8807 13.2728 25.9943H13.358V22.7727H14.3637V31.5H13.3921V30.4943H13.2728C13.199 30.6136 13.0938 30.7642 12.9575 30.946C12.8211 31.125 12.6265 31.2855 12.3737 31.4276C12.1208 31.5668 11.7842 31.6364 11.3637 31.6364ZM11.5001 30.733C11.9035 30.733 12.2444 30.6278 12.5228 30.4176C12.8012 30.2045 13.0129 29.9105 13.1578 29.5355C13.3026 29.1577 13.3751 28.7216 13.3751 28.2273C13.3751 27.7386 13.3041 27.3111 13.162 26.9446C13.02 26.5753 12.8097 26.2884 12.5313 26.0838C12.2529 25.8764 11.9092 25.7727 11.5001 25.7727C11.074 25.7727 10.7188 25.8821 10.4347 26.1009C10.1535 26.3168 9.94185 26.6108 9.7998 26.983C9.6606 27.3523 9.591 27.767 9.591 28.2273C9.591 28.6932 9.66202 29.1165 9.80407 29.4972C9.94895 29.875 10.162 30.1761 10.4433 30.4006C10.7274 30.6222 11.0796 30.733 11.5001 30.733ZM16.3453 31.5V24.9545H17.3509V31.5H16.3453ZM16.8566 23.8636C16.6606 23.8636 16.4916 23.7969 16.3495 23.6634C16.2103 23.5298 16.1407 23.3693 16.1407 23.1818C16.1407 22.9943 16.2103 22.8338 16.3495 22.7003C16.4916 22.5668 16.6606 22.5 16.8566 22.5C17.0526 22.5 17.2203 22.5668 17.3595 22.7003C17.5015 22.8338 17.5725 22.9943 17.5725 23.1818C17.5725 23.3693 17.5015 23.5298 17.3595 23.6634C17.2203 23.7969 17.0526 23.8636 16.8566 23.8636ZM22.0395 24.9545V25.8068H18.6475V24.9545H22.0395ZM19.6361 23.3864H20.6418V29.625C20.6418 29.9091 20.683 30.1222 20.7654 30.2642C20.8506 30.4034 20.9585 30.4972 21.0892 30.5455C21.2227 30.5909 21.3634 30.6136 21.5111 30.6136C21.6219 30.6136 21.7128 30.608 21.7838 30.5966C21.8548 30.5824 21.9117 30.571 21.9543 30.5625L22.1588 31.4659C22.0906 31.4915 21.9955 31.517 21.8733 31.5426C21.7512 31.571 21.5963 31.5852 21.4088 31.5852C21.1247 31.5852 20.8463 31.5241 20.5736 31.402C20.3037 31.2798 20.0793 31.0938 19.9003 30.8438C19.7242 30.5938 19.6361 30.2784 19.6361 29.8977V23.3864Z" fill="#27AE60"/>
</svg>
