<svg width="15" height="15" viewBox="0 0 15 15" fill="none" xmlns="http://www.w3.org/2000/svg">
<path d="M14.6776 1.43934C14.8729 1.6346 14.8729 1.95118 14.6776 2.14645L13.6347 3.18933L11.6347 1.18933L12.6776 0.146447C12.8729 -0.0488156 13.1895 -0.0488154 13.3847 0.146447L14.6776 1.43934Z" fill="#27AE60"/>
<path d="M12.9276 3.89644L10.9276 1.89644L4.11464 8.70943C4.05975 8.76432 4.01839 8.83123 3.99385 8.90487L3.18929 11.3186C3.12414 11.514 3.31008 11.6999 3.50551 11.6348L5.9192 10.8302C5.99284 10.8057 6.05975 10.7643 6.11464 10.7094L12.9276 3.89644Z" fill="#27AE60"/>
<path fill-rule="evenodd" clip-rule="evenodd" d="M0.176025 13C0.176025 13.8284 0.847598 14.5 1.67603 14.5H12.676C13.5045 14.5 14.176 13.8284 14.176 13V7C14.176 6.72386 13.9522 6.5 13.676 6.5C13.3999 6.5 13.176 6.72386 13.176 7V13C13.176 13.2761 12.9522 13.5 12.676 13.5H1.67603C1.39988 13.5 1.17603 13.2761 1.17603 13V2C1.17603 1.72386 1.39988 1.5 1.67603 1.5H8.17603C8.45217 1.5 8.67603 1.27614 8.67603 1C8.67603 0.723858 8.45217 0.5 8.17603 0.5H1.67603C0.847598 0.5 0.176025 1.17157 0.176025 2V13Z" fill="#27AE60"/>
</svg>
