<svg width="16" height="14" viewBox="0 0 16 14" fill="none" xmlns="http://www.w3.org/2000/svg">
<path d="M4 0H9.5V0.875H4C3.44772 0.875 3 1.26675 3 1.75V12.25C3 12.7332 3.44772 13.125 4 13.125H12C12.5523 13.125 13 12.7332 13 12.25V3.9375H14V12.25C14 13.2165 13.1046 14 12 14H4C2.89543 14 2 13.2165 2 12.25V1.75C2 0.783501 2.89543 0 4 0Z" fill="#27AE60"/>
<path d="M9.5 2.625V0L14 3.9375H11C10.1716 3.9375 9.5 3.34987 9.5 2.625Z" fill="#27AE60"/>
<path fill-rule="evenodd" clip-rule="evenodd" d="M10.8536 6.25314C11.0488 6.424 11.0488 6.70101 10.8536 6.87186L7.85355 9.49686C7.75979 9.57891 7.63261 9.625 7.5 9.625C7.36739 9.625 7.24021 9.57891 7.14645 9.49686L5.64645 8.18436C5.45118 8.0135 5.45118 7.7365 5.64645 7.56564C5.84171 7.39479 6.15829 7.39479 6.35355 7.56564L7.5 8.56878L10.1464 6.25314C10.3417 6.08229 10.6583 6.08229 10.8536 6.25314Z" fill="#27AE60"/>
</svg>
