<svg width="26" height="26" viewBox="0 0 26 26" fill="none" xmlns="http://www.w3.org/2000/svg">
<path d="M18.3624 8.8875L21.2374 11.75L9.24989 11.75C8.91837 11.75 8.60042 11.8817 8.366 12.1161C8.13158 12.3505 7.99989 12.6685 7.99989 13C7.99989 13.3315 8.13158 13.6495 8.366 13.8839C8.60042 14.1183 8.91837 14.25 9.24989 14.25L21.2374 14.25L18.3624 17.1125C18.2452 17.2287 18.1522 17.367 18.0888 17.5193C18.0253 17.6716 17.9926 17.835 17.9926 18C17.9926 18.165 18.0253 18.3284 18.0888 18.4807C18.1522 18.633 18.2452 18.7713 18.3624 18.8875C18.4786 19.0047 18.6168 19.0977 18.7692 19.1611C18.9215 19.2246 19.0849 19.2572 19.2499 19.2572C19.4149 19.2572 19.5783 19.2246 19.7306 19.1611C19.8829 19.0977 20.0212 19.0047 20.1374 18.8875L25.1374 13.8875C25.2512 13.7686 25.3404 13.6284 25.3999 13.475C25.5249 13.1707 25.5249 12.8293 25.3999 12.525C25.3404 12.3716 25.2512 12.2314 25.1374 12.1125L20.1374 7.1125C20.0208 6.99595 19.8825 6.9035 19.7302 6.84043C19.5779 6.77735 19.4147 6.74489 19.2499 6.74489C19.0851 6.74489 18.9219 6.77735 18.7696 6.84043C18.6173 6.9035 18.4789 6.99595 18.3624 7.1125C18.2458 7.22905 18.1534 7.36741 18.0903 7.51969C18.0272 7.67197 17.9948 7.83518 17.9948 8C17.9948 8.16482 18.0272 8.32803 18.0903 8.48031C18.1534 8.63259 18.2458 8.77095 18.3624 8.8875ZM12.9999 24.25C12.9999 23.9185 12.8682 23.6005 12.6338 23.3661C12.3993 23.1317 12.0814 23 11.7499 23H4.24989C3.91836 23 3.60042 22.8683 3.366 22.6339C3.13158 22.3995 2.99989 22.0815 2.99989 21.75L2.99989 4.25C2.99989 3.91848 3.13158 3.60054 3.366 3.36612C3.60042 3.1317 3.91836 3 4.24989 3L11.7499 3C12.0814 3 12.3993 2.8683 12.6338 2.63388C12.8682 2.39946 12.9999 2.08152 12.9999 1.75C12.9999 1.41848 12.8682 1.10054 12.6338 0.866116C12.3993 0.631696 12.0814 0.5 11.7499 0.5L4.24989 0.5C3.25532 0.5 2.30149 0.895088 1.59823 1.59835C0.894972 2.30161 0.499886 3.25544 0.499886 4.25L0.499886 21.75C0.499886 22.7446 0.894972 23.6984 1.59823 24.4017C2.30149 25.1049 3.25532 25.5 4.24989 25.5H11.7499C12.0814 25.5 12.3993 25.3683 12.6338 25.1339C12.8682 24.8995 12.9999 24.5815 12.9999 24.25Z" fill="#FF3939"/>
</svg>
