<svg width="32" height="32" viewBox="0 0 32 32" fill="none" xmlns="http://www.w3.org/2000/svg">
<path d="M2.66666 29.3337V24.0003H29.3333V29.3337H25.3333V26.667H18V29.3337H14V26.667H6.66666V29.3337H2.66666ZM7.99999 21.3337C7.62221 21.3337 7.30577 21.2057 7.05066 20.9497C6.79555 20.6937 6.66755 20.3772 6.66666 20.0003V4.00033C6.66666 3.62255 6.79466 3.3061 7.05066 3.05099C7.30666 2.79588 7.6231 2.66788 7.99999 2.66699H24C24.3778 2.66699 24.6947 2.79499 24.9507 3.05099C25.2067 3.30699 25.3342 3.62344 25.3333 4.00033V20.0003C25.3333 20.3781 25.2053 20.695 24.9493 20.951C24.6933 21.207 24.3769 21.3345 24 21.3337H7.99999ZM9.33332 18.667H22.6667V5.33366H9.33332V18.667ZM12 10.667H20V8.00033H12V10.667Z" fill="#0060B8"/>
</svg>
