<svg width="14" height="14" viewBox="0 0 14 14" fill="none" xmlns="http://www.w3.org/2000/svg">
<g clip-path="url(#clip0_444_1192)">
<path d="M10.5001 4.08335V3.03335C10.5001 2.37996 10.5001 2.05326 10.3729 1.8037C10.2611 1.58418 10.0826 1.4057 9.86307 1.29385C9.61351 1.16669 9.28681 1.16669 8.63341 1.16669H5.36675C4.71335 1.16669 4.38666 1.16669 4.13709 1.29385C3.91757 1.4057 3.73909 1.58418 3.62724 1.8037C3.50008 2.05326 3.50008 2.37996 3.50008 3.03335V4.08335M3.50008 10.5C2.9576 10.5 2.68636 10.5 2.46381 10.4404C1.8599 10.2786 1.3882 9.80686 1.22638 9.20295C1.16675 8.98041 1.16675 8.70917 1.16675 8.16669V6.88335C1.16675 5.90326 1.16675 5.41322 1.35749 5.03887C1.52527 4.70959 1.79298 4.44187 2.12226 4.27409C2.49661 4.08335 2.98666 4.08335 3.96675 4.08335H10.0334C11.0135 4.08335 11.5036 4.08335 11.8779 4.27409C12.2072 4.44187 12.4749 4.70959 12.6427 5.03887C12.8334 5.41322 12.8334 5.90326 12.8334 6.88335V8.16669C12.8334 8.70917 12.8334 8.98041 12.7738 9.20295C12.612 9.80686 12.1403 10.2786 11.5363 10.4404C11.3138 10.5 11.0426 10.5 10.5001 10.5M8.75008 6.12502H10.5001M5.36675 12.8334H8.63341C9.28681 12.8334 9.61351 12.8334 9.86307 12.7062C10.0826 12.5943 10.2611 12.4159 10.3729 12.1963C10.5001 11.9468 10.5001 11.6201 10.5001 10.9667V10.0334C10.5001 9.37996 10.5001 9.05326 10.3729 8.8037C10.2611 8.58418 10.0826 8.4057 9.86307 8.29385C9.61351 8.16669 9.28681 8.16669 8.63341 8.16669H5.36675C4.71335 8.16669 4.38666 8.16669 4.13709 8.29385C3.91757 8.4057 3.73909 8.58418 3.62724 8.8037C3.50008 9.05326 3.50008 9.37996 3.50008 10.0334V10.9667C3.50008 11.6201 3.50008 11.9468 3.62724 12.1963C3.73909 12.4159 3.91757 12.5943 4.13709 12.7062C4.38666 12.8334 4.71335 12.8334 5.36675 12.8334Z" stroke="#F48031" stroke-linecap="round" stroke-linejoin="round"/>
</g>
<defs>
<clipPath id="clip0_444_1192">
<rect width="14" height="14" fill="white"/>
</clipPath>
</defs>
</svg>
