<svg width="12" height="14" viewBox="0 0 12 14" fill="none" xmlns="http://www.w3.org/2000/svg">
<path fill-rule="evenodd" clip-rule="evenodd" d="M2.2998 0H9.2998C10.2663 0 11.0498 0.783502 11.0498 1.75V12.25C11.0498 13.2165 10.2663 14 9.2998 14H2.2998C1.33331 14 0.549805 13.2165 0.549805 12.25V1.75C0.549805 0.783501 1.33331 0 2.2998 0ZM2.2998 0.875C1.81656 0.875 1.4248 1.26675 1.4248 1.75V12.25C1.4248 12.7332 1.81656 13.125 2.2998 13.125H9.2998C9.78305 13.125 10.1748 12.7332 10.1748 12.25V1.75C10.1748 1.26675 9.78305 0.875 9.2998 0.875H2.2998Z" fill="#F2994A"/>
<path fill-rule="evenodd" clip-rule="evenodd" d="M2.7373 9.1875C2.7373 8.94588 2.93318 8.75 3.1748 8.75H5.7998C6.04143 8.75 6.2373 8.94588 6.2373 9.1875C6.2373 9.42912 6.04143 9.625 5.7998 9.625H3.1748C2.93318 9.625 2.7373 9.42912 2.7373 9.1875Z" fill="#F2994A"/>
<path fill-rule="evenodd" clip-rule="evenodd" d="M2.7373 7.4375C2.7373 7.19588 2.93318 7 3.1748 7H8.4248C8.66643 7 8.8623 7.19588 8.8623 7.4375C8.8623 7.67912 8.66643 7.875 8.4248 7.875H3.1748C2.93318 7.875 2.7373 7.67912 2.7373 7.4375Z" fill="#F2994A"/>
<path fill-rule="evenodd" clip-rule="evenodd" d="M2.7373 5.6875C2.7373 5.44588 2.93318 5.25 3.1748 5.25H8.4248C8.66643 5.25 8.8623 5.44588 8.8623 5.6875C8.8623 5.92912 8.66643 6.125 8.4248 6.125H3.1748C2.93318 6.125 2.7373 5.92912 2.7373 5.6875Z" fill="#F2994A"/>
<path fill-rule="evenodd" clip-rule="evenodd" d="M2.7373 3.9375C2.7373 3.69588 2.93318 3.5 3.1748 3.5H8.4248C8.66643 3.5 8.8623 3.69588 8.8623 3.9375C8.8623 4.17912 8.66643 4.375 8.4248 4.375H3.1748C2.93318 4.375 2.7373 4.17912 2.7373 3.9375Z" fill="#F2994A"/>
</svg>
