<svg width="57" height="34" viewBox="0 0 57 34" fill="none" xmlns="http://www.w3.org/2000/svg">
<path fill-rule="evenodd" clip-rule="evenodd" d="M25.2998 0H32.2998C33.2663 0 34.0498 0.783502 34.0498 1.75V12.25C34.0498 13.2165 33.2663 14 32.2998 14H25.2998C24.3333 14 23.5498 13.2165 23.5498 12.25V1.75C23.5498 0.783501 24.3333 0 25.2998 0ZM25.2998 0.875C24.8166 0.875 24.4248 1.26675 24.4248 1.75V12.25C24.4248 12.7332 24.8166 13.125 25.2998 13.125H32.2998C32.7831 13.125 33.1748 12.7332 33.1748 12.25V1.75C33.1748 1.26675 32.7831 0.875 32.2998 0.875H25.2998Z" fill="#F2994A"/>
<path fill-rule="evenodd" clip-rule="evenodd" d="M25.7373 9.1875C25.7373 8.94588 25.9332 8.75 26.1748 8.75H28.7998C29.0414 8.75 29.2373 8.94588 29.2373 9.1875C29.2373 9.42912 29.0414 9.625 28.7998 9.625H26.1748C25.9332 9.625 25.7373 9.42912 25.7373 9.1875Z" fill="#F2994A"/>
<path fill-rule="evenodd" clip-rule="evenodd" d="M25.7373 7.4375C25.7373 7.19588 25.9332 7 26.1748 7H31.4248C31.6664 7 31.8623 7.19588 31.8623 7.4375C31.8623 7.67912 31.6664 7.875 31.4248 7.875H26.1748C25.9332 7.875 25.7373 7.67912 25.7373 7.4375Z" fill="#F2994A"/>
<path fill-rule="evenodd" clip-rule="evenodd" d="M25.7373 5.6875C25.7373 5.44588 25.9332 5.25 26.1748 5.25H31.4248C31.6664 5.25 31.8623 5.44588 31.8623 5.6875C31.8623 5.92912 31.6664 6.125 31.4248 6.125H26.1748C25.9332 6.125 25.7373 5.92912 25.7373 5.6875Z" fill="#F2994A"/>
<path fill-rule="evenodd" clip-rule="evenodd" d="M25.7373 3.9375C25.7373 3.69588 25.9332 3.5 26.1748 3.5H31.4248C31.6664 3.5 31.8623 3.69588 31.8623 3.9375C31.8623 4.17912 31.6664 4.375 31.4248 4.375H26.1748C25.9332 4.375 25.7373 4.17912 25.7373 3.9375Z" fill="#F2994A"/>
<path d="M1.72026 33.4545V24.4545H2.69185V25.4943H2.81117C2.88503 25.3807 2.9873 25.2358 3.11799 25.0597C3.25151 24.8807 3.44185 24.7216 3.68901 24.5824C3.93901 24.4403 4.27708 24.3693 4.70321 24.3693C5.25435 24.3693 5.74015 24.5071 6.1606 24.7827C6.58105 25.0582 6.90918 25.4489 7.14498 25.9545C7.38077 26.4602 7.49867 27.0568 7.49867 27.7443C7.49867 28.4375 7.38077 29.0384 7.14498 29.5469C6.90918 30.0526 6.58248 30.4446 6.16486 30.723C5.74725 30.9986 5.26571 31.1364 4.72026 31.1364C4.2998 31.1364 3.96316 31.0668 3.71032 30.9276C3.45748 30.7855 3.26287 30.625 3.12651 30.446C2.99015 30.2642 2.88503 30.1136 2.81117 29.9943H2.72594V33.4545H1.72026ZM2.7089 27.7273C2.7089 28.2216 2.78134 28.6577 2.92623 29.0355C3.07111 29.4105 3.28276 29.7045 3.56117 29.9176C3.83958 30.1278 4.18049 30.233 4.5839 30.233C5.00435 30.233 5.3552 30.1222 5.63645 29.9006C5.92054 29.6761 6.13361 29.375 6.27566 28.9972C6.42054 28.6165 6.49299 28.1932 6.49299 27.7273C6.49299 27.267 6.42196 26.8523 6.27992 26.483C6.14071 26.1108 5.92907 25.8168 5.64498 25.6009C5.36373 25.3821 5.01003 25.2727 4.5839 25.2727C4.1748 25.2727 3.83105 25.3764 3.55265 25.5838C3.27424 25.7884 3.06401 26.0753 2.92196 26.4446C2.77992 26.8111 2.7089 27.2386 2.7089 27.7273ZM9.03276 31V24.4545H10.0044V25.4432H10.0725C10.1919 25.1193 10.4078 24.8565 10.7203 24.6548C11.0328 24.4531 11.385 24.3523 11.7771 24.3523C11.8509 24.3523 11.9433 24.3537 12.0541 24.3565C12.1649 24.3594 12.2487 24.3636 12.3055 24.3693V25.392C12.2714 25.3835 12.1933 25.3707 12.0711 25.3537C11.9518 25.3338 11.8254 25.3239 11.6919 25.3239C11.3737 25.3239 11.0896 25.3906 10.8396 25.5241C10.5924 25.6548 10.3964 25.8366 10.2515 26.0696C10.1095 26.2997 10.0384 26.5625 10.0384 26.858V31H9.03276ZM15.9575 31.1364C15.3666 31.1364 14.8481 30.9957 14.4021 30.7145C13.9589 30.4332 13.6123 30.0398 13.3623 29.5341C13.1151 29.0284 12.9916 28.4375 12.9916 27.7614C12.9916 27.0795 13.1151 26.4844 13.3623 25.9759C13.6123 25.4673 13.9589 25.0724 14.4021 24.7912C14.8481 24.5099 15.3666 24.3693 15.9575 24.3693C16.5484 24.3693 17.0654 24.5099 17.5086 24.7912C17.9546 25.0724 18.3012 25.4673 18.5484 25.9759C18.7984 26.4844 18.9234 27.0795 18.9234 27.7614C18.9234 28.4375 18.7984 29.0284 18.5484 29.5341C18.3012 30.0398 17.9546 30.4332 17.5086 30.7145C17.0654 30.9957 16.5484 31.1364 15.9575 31.1364ZM15.9575 30.233C16.4063 30.233 16.7757 30.1179 17.0654 29.8878C17.3552 29.6577 17.5697 29.3551 17.7089 28.9801C17.8481 28.6051 17.9177 28.1989 17.9177 27.7614C17.9177 27.3239 17.8481 26.9162 17.7089 26.5384C17.5697 26.1605 17.3552 25.8551 17.0654 25.6222C16.7757 25.3892 16.4063 25.2727 15.9575 25.2727C15.5086 25.2727 15.1393 25.3892 14.8495 25.6222C14.5597 25.8551 14.3453 26.1605 14.2061 26.5384C14.0669 26.9162 13.9972 27.3239 13.9972 27.7614C13.9972 28.1989 14.0669 28.6051 14.2061 28.9801C14.3453 29.3551 14.5597 29.6577 14.8495 29.8878C15.1393 30.1179 15.5086 30.233 15.9575 30.233ZM20.4585 33.4545V24.4545H21.4301V25.4943H21.5494C21.6233 25.3807 21.7256 25.2358 21.8563 25.0597C21.9898 24.8807 22.1801 24.7216 22.4273 24.5824C22.6773 24.4403 23.0154 24.3693 23.4415 24.3693C23.9926 24.3693 24.4784 24.5071 24.8989 24.7827C25.3193 25.0582 25.6475 25.4489 25.8833 25.9545C26.1191 26.4602 26.2369 27.0568 26.2369 27.7443C26.2369 28.4375 26.1191 29.0384 25.8833 29.5469C25.6475 30.0526 25.3208 30.4446 24.9031 30.723C24.4855 30.9986 24.004 31.1364 23.4585 31.1364C23.0381 31.1364 22.7014 31.0668 22.4486 30.9276C22.1958 30.7855 22.0012 30.625 21.8648 30.446C21.7284 30.2642 21.6233 30.1136 21.5494 29.9943H21.4642V33.4545H20.4585ZM21.4472 27.7273C21.4472 28.2216 21.5196 28.6577 21.6645 29.0355C21.8094 29.4105 22.021 29.7045 22.2994 29.9176C22.5779 30.1278 22.9188 30.233 23.3222 30.233C23.7426 30.233 24.0935 30.1222 24.3747 29.9006C24.6588 29.6761 24.8719 29.375 25.0139 28.9972C25.1588 28.6165 25.2313 28.1932 25.2313 27.7273C25.2313 27.267 25.1602 26.8523 25.0182 26.483C24.879 26.1108 24.6673 25.8168 24.3833 25.6009C24.102 25.3821 23.7483 25.2727 23.3222 25.2727C22.9131 25.2727 22.5693 25.3764 22.2909 25.5838C22.0125 25.7884 21.8023 26.0753 21.6602 26.4446C21.5182 26.8111 21.4472 27.2386 21.4472 27.7273ZM30.4301 31.1364C29.8392 31.1364 29.3208 30.9957 28.8747 30.7145C28.4316 30.4332 28.085 30.0398 27.835 29.5341C27.5878 29.0284 27.4642 28.4375 27.4642 27.7614C27.4642 27.0795 27.5878 26.4844 27.835 25.9759C28.085 25.4673 28.4316 25.0724 28.8747 24.7912C29.3208 24.5099 29.8392 24.3693 30.4301 24.3693C31.021 24.3693 31.5381 24.5099 31.9813 24.7912C32.4273 25.0724 32.7739 25.4673 33.021 25.9759C33.271 26.4844 33.396 27.0795 33.396 27.7614C33.396 28.4375 33.271 29.0284 33.021 29.5341C32.7739 30.0398 32.4273 30.4332 31.9813 30.7145C31.5381 30.9957 31.021 31.1364 30.4301 31.1364ZM30.4301 30.233C30.879 30.233 31.2483 30.1179 31.5381 29.8878C31.8279 29.6577 32.0423 29.3551 32.1816 28.9801C32.3208 28.6051 32.3904 28.1989 32.3904 27.7614C32.3904 27.3239 32.3208 26.9162 32.1816 26.5384C32.0423 26.1605 31.8279 25.8551 31.5381 25.6222C31.2483 25.3892 30.879 25.2727 30.4301 25.2727C29.9813 25.2727 29.6119 25.3892 29.3222 25.6222C29.0324 25.8551 28.8179 26.1605 28.6787 26.5384C28.5395 26.9162 28.4699 27.3239 28.4699 27.7614C28.4699 28.1989 28.5395 28.6051 28.6787 28.9801C28.8179 29.3551 29.0324 29.6577 29.3222 29.8878C29.6119 30.1179 29.9813 30.233 30.4301 30.233ZM39.5676 25.9205L38.6642 26.1761C38.6073 26.0256 38.5235 25.8793 38.4127 25.7372C38.3048 25.5923 38.157 25.473 37.9695 25.3793C37.782 25.2855 37.542 25.2386 37.2494 25.2386C36.8488 25.2386 36.515 25.331 36.248 25.5156C35.9838 25.6974 35.8517 25.929 35.8517 26.2102C35.8517 26.4602 35.9426 26.6577 36.1244 26.8026C36.3062 26.9474 36.5903 27.0682 36.9767 27.1648L37.9482 27.4034C38.5335 27.5455 38.9695 27.7628 39.2565 28.0554C39.5434 28.3452 39.6869 28.7187 39.6869 29.1761C39.6869 29.5511 39.5789 29.8864 39.363 30.1818C39.1499 30.4773 38.8517 30.7102 38.4681 30.8807C38.0846 31.0511 37.6386 31.1364 37.1301 31.1364C36.4624 31.1364 35.9099 30.9915 35.4724 30.7017C35.0349 30.4119 34.7579 29.9886 34.6414 29.4318L35.596 29.1932C35.6869 29.5455 35.8588 29.8097 36.1116 29.9858C36.3673 30.1619 36.7011 30.25 37.113 30.25C37.5818 30.25 37.9539 30.1506 38.2295 29.9517C38.5079 29.75 38.6471 29.5085 38.6471 29.2273C38.6471 29 38.5676 28.8097 38.4085 28.6562C38.2494 28.5 38.0051 28.3835 37.6755 28.3068L36.5846 28.0511C35.9852 27.9091 35.5448 27.6889 35.2636 27.3906C34.9852 27.0895 34.846 26.7131 34.846 26.2614C34.846 25.892 34.9497 25.5653 35.157 25.2812C35.3673 24.9972 35.6528 24.7741 36.0136 24.6122C36.3772 24.4503 36.7892 24.3693 37.2494 24.3693C37.8971 24.3693 38.4056 24.5114 38.7749 24.7955C39.1471 25.0795 39.4113 25.4545 39.5676 25.9205ZM43.1269 31.1534C42.7121 31.1534 42.3357 31.0753 41.9976 30.919C41.6595 30.7599 41.3911 30.5312 41.1922 30.233C40.9933 29.9318 40.8939 29.5682 40.8939 29.142C40.8939 28.767 40.9678 28.4631 41.1155 28.2301C41.2632 27.9943 41.4607 27.8097 41.7078 27.6761C41.955 27.5426 42.2277 27.4432 42.526 27.3778C42.8271 27.3097 43.1297 27.2557 43.4337 27.2159C43.8314 27.1648 44.1539 27.1264 44.401 27.1009C44.651 27.0724 44.8328 27.0256 44.9465 26.9602C45.0629 26.8949 45.1212 26.7812 45.1212 26.6193V26.5852C45.1212 26.1648 45.0061 25.8381 44.776 25.6051C44.5487 25.3722 44.2036 25.2557 43.7405 25.2557C43.2604 25.2557 42.884 25.3608 42.6112 25.571C42.3385 25.7812 42.1468 26.0057 42.036 26.2443L41.0814 25.9034C41.2519 25.5057 41.4791 25.196 41.7632 24.9744C42.0502 24.75 42.3627 24.5937 42.7007 24.5057C43.0416 24.4148 43.3769 24.3693 43.7064 24.3693C43.9166 24.3693 44.1581 24.3949 44.4308 24.446C44.7064 24.4943 44.972 24.5952 45.2277 24.7486C45.4862 24.902 45.7007 25.1335 45.8712 25.4432C46.0416 25.7528 46.1269 26.1676 46.1269 26.6875V31H45.1212V30.1136H45.07C45.0019 30.2557 44.8882 30.4077 44.7291 30.5696C44.57 30.7315 44.3584 30.8693 44.0942 30.983C43.83 31.0966 43.5075 31.1534 43.1269 31.1534ZM43.2803 30.25C43.678 30.25 44.0132 30.1719 44.286 30.0156C44.5615 29.8594 44.7689 29.6577 44.9081 29.4105C45.0502 29.1634 45.1212 28.9034 45.1212 28.6307V27.7102C45.0786 27.7614 44.9848 27.8082 44.8399 27.8509C44.6979 27.8906 44.5331 27.9261 44.3456 27.9574C44.161 27.9858 43.9806 28.0114 43.8044 28.0341C43.6311 28.054 43.4905 28.071 43.3825 28.0852C43.1212 28.1193 42.8769 28.1747 42.6496 28.2514C42.4252 28.3253 42.2433 28.4375 42.1041 28.5881C41.9678 28.7358 41.8996 28.9375 41.8996 29.1932C41.8996 29.5426 42.0289 29.8068 42.2874 29.9858C42.5487 30.1619 42.8797 30.25 43.2803 30.25ZM48.9681 22.2727V31H47.9624V22.2727H48.9681ZM55.4465 25.9205L54.5431 26.1761C54.4862 26.0256 54.4024 25.8793 54.2916 25.7372C54.1837 25.5923 54.036 25.473 53.8485 25.3793C53.661 25.2855 53.4209 25.2386 53.1283 25.2386C52.7277 25.2386 52.3939 25.331 52.1269 25.5156C51.8627 25.6974 51.7306 25.929 51.7306 26.2102C51.7306 26.4602 51.8215 26.6577 52.0033 26.8026C52.1851 26.9474 52.4692 27.0682 52.8556 27.1648L53.8271 27.4034C54.4124 27.5455 54.8485 27.7628 55.1354 28.0554C55.4223 28.3452 55.5658 28.7187 55.5658 29.1761C55.5658 29.5511 55.4578 29.8864 55.2419 30.1818C55.0289 30.4773 54.7306 30.7102 54.347 30.8807C53.9635 31.0511 53.5175 31.1364 53.009 31.1364C52.3414 31.1364 51.7888 30.9915 51.3513 30.7017C50.9138 30.4119 50.6368 29.9886 50.5203 29.4318L51.4749 29.1932C51.5658 29.5455 51.7377 29.8097 51.9905 29.9858C52.2462 30.1619 52.58 30.25 52.9919 30.25C53.4607 30.25 53.8328 30.1506 54.1084 29.9517C54.3868 29.75 54.526 29.5085 54.526 29.2273C54.526 29 54.4465 28.8097 54.2874 28.6562C54.1283 28.5 53.884 28.3835 53.5544 28.3068L52.4635 28.0511C51.8641 27.9091 51.4237 27.6889 51.1425 27.3906C50.8641 27.0895 50.7249 26.7131 50.7249 26.2614C50.7249 25.892 50.8286 25.5653 51.036 25.2812C51.2462 24.9972 51.5317 24.7741 51.8925 24.6122C52.2561 24.4503 52.6681 24.3693 53.1283 24.3693C53.776 24.3693 54.2845 24.5114 54.6539 24.7955C55.026 25.0795 55.2902 25.4545 55.4465 25.9205Z" fill="#F2994A"/>
</svg>
