<svg width="32" height="21" viewBox="0 0 32 21" fill="none" xmlns="http://www.w3.org/2000/svg">
<path d="M7.99992 20.0003C8.70716 20.0003 9.38544 19.7194 9.88554 19.2193C10.3856 18.7192 10.6666 18.0409 10.6666 17.3337C10.6666 16.6264 10.3856 15.9481 9.88554 15.448C9.38544 14.9479 8.70716 14.667 7.99992 14.667C7.29267 14.667 6.6144 14.9479 6.1143 15.448C5.6142 15.9481 5.33325 16.6264 5.33325 17.3337C5.33325 18.0409 5.6142 18.7192 6.1143 19.2193C6.6144 19.7194 7.29267 20.0003 7.99992 20.0003ZM23.3333 20.0003C24.0405 20.0003 24.7188 19.7194 25.2189 19.2193C25.719 18.7192 25.9999 18.0409 25.9999 17.3337C25.9999 16.6264 25.719 15.9481 25.2189 15.448C24.7188 14.9479 24.0405 14.667 23.3333 14.667C22.626 14.667 21.9477 14.9479 21.4476 15.448C20.9475 15.9481 20.6666 16.6264 20.6666 17.3337C20.6666 18.0409 20.9475 18.7192 21.4476 19.2193C21.9477 19.7194 22.626 20.0003 23.3333 20.0003Z" stroke="#0060B8" stroke-width="2" stroke-linejoin="round"/>
<path d="M5.33325 17.3335H1.33325V1.3335H20.6666V17.3335M20.6666 17.3335H10.6666M20.6666 17.3335V6.00016H26.3806L30.6666 11.6668V17.3335H26.5406" stroke="#0060B8" stroke-width="2" stroke-linecap="round" stroke-linejoin="round"/>
</svg>
