<svg width="27" height="31" viewBox="0 0 27 31" fill="none" xmlns="http://www.w3.org/2000/svg">
<path fill-rule="evenodd" clip-rule="evenodd" d="M4.16675 1.75C4.16675 0.783502 4.95025 0 5.91675 0H16.4167C17.3832 0 18.1667 0.783502 18.1667 1.75V3.5H19.356C19.8876 3.5 20.3904 3.74166 20.7225 4.15678L22.4499 6.31603C22.6982 6.62633 22.8334 7.01187 22.8334 7.40924V9.91667C22.8334 10.8832 22.0499 11.6667 21.0834 11.6667H20.5001C20.5001 12.9553 19.4554 14 18.1667 14C16.8781 14 15.8334 12.9553 15.8334 11.6667H10.0001C10.0001 12.9553 8.95541 14 7.66675 14C6.37808 14 5.33341 12.9553 5.33341 11.6667C5.33341 11.6335 5.3341 11.6006 5.33547 11.5678C4.6547 11.3282 4.16675 10.6794 4.16675 9.91667V1.75ZM5.67636 10.4483C6.08664 9.77948 6.82459 9.33333 7.66675 9.33333C8.53041 9.33333 9.28448 9.80256 9.68792 10.5H16.1456C16.3505 10.1458 16.6458 9.8504 17.0001 9.64549V1.75C17.0001 1.42783 16.7389 1.16667 16.4167 1.16667H5.91675C5.59458 1.16667 5.33341 1.42783 5.33341 1.75V9.91667C5.33341 10.1531 5.47411 10.3567 5.67636 10.4483ZM18.1667 9.33333C19.0304 9.33333 19.7845 9.80256 20.1879 10.5H21.0834C21.4056 10.5 21.6667 10.2388 21.6667 9.91667V7.40924C21.6667 7.27679 21.6217 7.14827 21.5389 7.04484L19.8115 4.88559C19.7008 4.74722 19.5332 4.66667 19.356 4.66667H18.1667V9.33333ZM7.66675 10.5C7.02242 10.5 6.50008 11.0223 6.50008 11.6667C6.50008 12.311 7.02242 12.8333 7.66675 12.8333C8.31108 12.8333 8.83342 12.311 8.83342 11.6667C8.83342 11.0223 8.31108 10.5 7.66675 10.5ZM18.1667 10.5C17.5224 10.5 17.0001 11.0223 17.0001 11.6667C17.0001 12.311 17.5224 12.8333 18.1667 12.8333C18.8111 12.8333 19.3334 12.311 19.3334 11.6667C19.3334 11.0223 18.8111 10.5 18.1667 10.5Z" fill="#BDBDBD"/>
<path d="M0.482955 22.5085V21.7273H5.9375V22.5085H3.65057V29H2.76989V22.5085H0.482955ZM6.61665 29V23.5455H7.42631V24.3693H7.48313C7.58256 24.0994 7.76249 23.8804 8.0229 23.7124C8.28332 23.5443 8.57688 23.4602 8.90359 23.4602C8.96514 23.4602 9.04208 23.4614 9.13441 23.4638C9.22674 23.4661 9.29658 23.4697 9.34393 23.4744V24.3267C9.31552 24.3196 9.25041 24.3089 9.14862 24.2947C9.04918 24.2782 8.94383 24.2699 8.83256 24.2699C8.56741 24.2699 8.33067 24.3255 8.12234 24.4368C7.91637 24.5457 7.75302 24.6972 7.63228 24.8913C7.51391 25.0831 7.45472 25.3021 7.45472 25.5483V29H6.61665ZM11.9425 29.1278C11.5968 29.1278 11.2831 29.0627 11.0014 28.9325C10.7197 28.8 10.496 28.6094 10.3303 28.3608C10.1645 28.1098 10.0817 27.8068 10.0817 27.4517C10.0817 27.1392 10.1432 26.8859 10.2663 26.6918C10.3894 26.4953 10.554 26.3414 10.7599 26.2301C10.9659 26.1188 11.1932 26.036 11.4418 25.9815C11.6927 25.9247 11.9448 25.8797 12.1982 25.8466C12.5296 25.804 12.7983 25.772 13.0043 25.7507C13.2126 25.727 13.3641 25.688 13.4588 25.6335C13.5559 25.5791 13.6044 25.4844 13.6044 25.3494V25.321C13.6044 24.9706 13.5085 24.6984 13.3168 24.5043C13.1274 24.3101 12.8397 24.2131 12.4538 24.2131C12.0537 24.2131 11.7401 24.3007 11.5128 24.4759C11.2855 24.651 11.1257 24.8381 11.0334 25.0369L10.2379 24.7528C10.38 24.4214 10.5694 24.1634 10.8061 23.9787C11.0452 23.7917 11.3056 23.6615 11.5874 23.5881C11.8714 23.5123 12.1508 23.4744 12.4254 23.4744C12.6006 23.4744 12.8018 23.4957 13.0291 23.5384C13.2588 23.5786 13.4801 23.6626 13.6932 23.7905C13.9086 23.9183 14.0874 24.1113 14.2294 24.3693C14.3714 24.6274 14.4425 24.973 14.4425 25.4062V29H13.6044V28.2614H13.5618C13.505 28.3797 13.4103 28.5064 13.2777 28.6413C13.1451 28.7763 12.9688 28.8911 12.7486 28.9858C12.5284 29.0805 12.2597 29.1278 11.9425 29.1278ZM12.0703 28.375C12.4018 28.375 12.6811 28.3099 12.9084 28.1797C13.138 28.0495 13.3108 27.8814 13.4268 27.6754C13.5452 27.4695 13.6044 27.2528 13.6044 27.0256V26.2585C13.5689 26.3011 13.4908 26.3402 13.37 26.3757C13.2517 26.4089 13.1143 26.4384 12.9581 26.4645C12.8042 26.4882 12.6539 26.5095 12.5071 26.5284C12.3627 26.545 12.2455 26.5592 12.1555 26.571C11.9377 26.5994 11.7341 26.6456 11.5447 26.7095C11.3577 26.7711 11.2062 26.8646 11.0902 26.9901C10.9766 27.1132 10.9197 27.2812 10.9197 27.4943C10.9197 27.7855 11.0275 28.0057 11.2429 28.1548C11.4607 28.3016 11.7365 28.375 12.0703 28.375ZM18.188 29.1136C17.6767 29.1136 17.2363 28.9929 16.867 28.7514C16.4977 28.5099 16.2136 28.1773 16.0147 27.7536C15.8159 27.3298 15.7164 26.8456 15.7164 26.3011C15.7164 25.7472 15.8182 25.2583 16.0218 24.8345C16.2278 24.4084 16.5143 24.0758 16.8812 23.8366C17.2505 23.5952 17.6814 23.4744 18.1738 23.4744C18.5574 23.4744 18.903 23.5455 19.2108 23.6875C19.5185 23.8295 19.7707 24.0284 19.9672 24.2841C20.1636 24.5398 20.2856 24.8381 20.3329 25.179H19.4949C19.4309 24.9304 19.2889 24.7102 19.0687 24.5185C18.8509 24.3243 18.5574 24.2273 18.188 24.2273C17.8613 24.2273 17.5749 24.3125 17.3287 24.483C17.0848 24.651 16.8942 24.889 16.7569 25.1967C16.622 25.5021 16.5545 25.8608 16.5545 26.2727C16.5545 26.6941 16.6208 27.0611 16.7534 27.3736C16.8883 27.6861 17.0777 27.9287 17.3216 28.1016C17.5678 28.2744 17.8566 28.3608 18.188 28.3608C18.4058 28.3608 18.6035 28.3229 18.7811 28.2472C18.9586 28.1714 19.109 28.0625 19.2321 27.9205C19.3552 27.7784 19.4428 27.608 19.4949 27.4091H20.3329C20.2856 27.7311 20.1684 28.0211 19.9814 28.2791C19.7967 28.5348 19.5517 28.7384 19.2463 28.8899C18.9432 29.0391 18.5905 29.1136 18.188 29.1136ZM22.3393 27.0114L22.3251 25.9744H22.4956L24.8819 23.5455H25.9189L23.3762 26.1165H23.3052L22.3393 27.0114ZM21.5581 29V21.7273H22.3961V29H21.5581ZM25.024 29L22.8933 26.3011L23.4899 25.7188L26.0893 29H25.024Z" fill="#BDBDBD"/>
</svg>
