<svg width="19" height="14" viewBox="0 0 19 14" fill="none" xmlns="http://www.w3.org/2000/svg">
<path fill-rule="evenodd" clip-rule="evenodd" d="M0.166504 1.75C0.166504 0.783502 0.950006 0 1.9165 0H12.4165C13.383 0 14.1665 0.783502 14.1665 1.75V3.5H15.3558C15.8874 3.5 16.3902 3.74166 16.7223 4.15678L18.4497 6.31603C18.6979 6.62633 18.8332 7.01187 18.8332 7.40924V9.91667C18.8332 10.8832 18.0497 11.6667 17.0832 11.6667H16.4998C16.4998 12.9553 15.4552 14 14.1665 14C12.8778 14 11.8332 12.9553 11.8332 11.6667H5.99984C5.99984 12.9553 4.95517 14 3.6665 14C2.37784 14 1.33317 12.9553 1.33317 11.6667C1.33317 11.6335 1.33386 11.6006 1.33523 11.5678C0.654456 11.3282 0.166504 10.6794 0.166504 9.91667V1.75ZM1.67612 10.4483C2.0864 9.77948 2.82435 9.33333 3.6665 9.33333C4.53017 9.33333 5.28424 9.80256 5.68768 10.5H12.1453C12.3502 10.1458 12.6456 9.8504 12.9998 9.64549V1.75C12.9998 1.42783 12.7387 1.16667 12.4165 1.16667H1.9165C1.59434 1.16667 1.33317 1.42783 1.33317 1.75V9.91667C1.33317 10.1531 1.47387 10.3567 1.67612 10.4483ZM14.1665 9.33333C15.0302 9.33333 15.7842 9.80256 16.1877 10.5H17.0832C17.4053 10.5 17.6665 10.2388 17.6665 9.91667V7.40924C17.6665 7.27679 17.6214 7.14827 17.5387 7.04484L15.8113 4.88559C15.7006 4.74722 15.533 4.66667 15.3558 4.66667H14.1665V9.33333ZM3.6665 10.5C3.02217 10.5 2.49984 11.0223 2.49984 11.6667C2.49984 12.311 3.02217 12.8333 3.6665 12.8333C4.31084 12.8333 4.83317 12.311 4.83317 11.6667C4.83317 11.0223 4.31084 10.5 3.6665 10.5ZM14.1665 10.5C13.5222 10.5 12.9998 11.0223 12.9998 11.6667C12.9998 12.311 13.5222 12.8333 14.1665 12.8333C14.8108 12.8333 15.3332 12.311 15.3332 11.6667C15.3332 11.0223 14.8108 10.5 14.1665 10.5Z" fill="#0060B8"/>
</svg>
