<svg width="19" height="14" viewBox="0 0 19 14" fill="none" xmlns="http://www.w3.org/2000/svg">
<path fill-rule="evenodd" clip-rule="evenodd" d="M0.166748 1.75C0.166748 0.783502 0.95025 0 1.91675 0H12.4167C13.3832 0 14.1667 0.783502 14.1667 1.75V3.5H15.356C15.8876 3.5 16.3904 3.74166 16.7225 4.15678L18.4499 6.31603C18.6982 6.62633 18.8334 7.01187 18.8334 7.40924V9.91667C18.8334 10.8832 18.0499 11.6667 17.0834 11.6667H16.5001C16.5001 12.9553 15.4554 14 14.1667 14C12.8781 14 11.8334 12.9553 11.8334 11.6667H6.00008C6.00008 12.9553 4.95541 14 3.66675 14C2.37808 14 1.33341 12.9553 1.33341 11.6667C1.33341 11.6335 1.3341 11.6006 1.33547 11.5678C0.6547 11.3282 0.166748 10.6794 0.166748 9.91667V1.75ZM1.67636 10.4483C2.08664 9.77948 2.82459 9.33333 3.66675 9.33333C4.53041 9.33333 5.28448 9.80256 5.68792 10.5H12.1456C12.3505 10.1458 12.6458 9.8504 13.0001 9.64549V1.75C13.0001 1.42783 12.7389 1.16667 12.4167 1.16667H1.91675C1.59458 1.16667 1.33341 1.42783 1.33341 1.75V9.91667C1.33341 10.1531 1.47411 10.3567 1.67636 10.4483ZM14.1667 9.33333C15.0304 9.33333 15.7845 9.80256 16.1879 10.5H17.0834C17.4056 10.5 17.6667 10.2388 17.6667 9.91667V7.40924C17.6667 7.27679 17.6217 7.14827 17.5389 7.04484L15.8115 4.88559C15.7008 4.74722 15.5332 4.66667 15.356 4.66667H14.1667V9.33333ZM3.66675 10.5C3.02242 10.5 2.50008 11.0223 2.50008 11.6667C2.50008 12.311 3.02242 12.8333 3.66675 12.8333C4.31108 12.8333 4.83342 12.311 4.83342 11.6667C4.83342 11.0223 4.31108 10.5 3.66675 10.5ZM14.1667 10.5C13.5224 10.5 13.0001 11.0223 13.0001 11.6667C13.0001 12.311 13.5224 12.8333 14.1667 12.8333C14.8111 12.8333 15.3334 12.311 15.3334 11.6667C15.3334 11.0223 14.8111 10.5 14.1667 10.5Z" fill="#BDBDBD"/>
</svg>
